<svg width="12" height="12" viewBox="0 0 12 12" fill="none" xmlns="http://www.w3.org/2000/svg">
<path fill-rule="evenodd" clip-rule="evenodd" d="M9.49242 1.08121C9.68814 1.08121 9.84679 1.23987 9.84679 1.43558V3.32558C9.84679 3.52129 9.68814 3.67995 9.49242 3.67995C9.29671 3.67995 9.13805 3.52129 9.13805 3.32558V1.43558C9.13805 1.23987 9.29671 1.08121 9.49242 1.08121Z" fill="black"/>
<path fill-rule="evenodd" clip-rule="evenodd" d="M8.19305 2.38059C8.19305 2.18487 8.35171 2.02621 8.54743 2.02621H10.4374C10.6331 2.02621 10.7918 2.18487 10.7918 2.38059C10.7918 2.5763 10.6331 2.73496 10.4374 2.73496H8.54743C8.35171 2.73496 8.19305 2.5763 8.19305 2.38059Z" fill="black"/>
<path fill-rule="evenodd" clip-rule="evenodd" d="M1.10558 3.32559C1.10558 2.60776 1.68712 2.02621 2.40495 2.02621H6.65744C6.85316 2.02621 7.01181 2.18487 7.01181 2.38059C7.01181 2.5763 6.85316 2.73496 6.65744 2.73496H2.40495C2.07855 2.73496 1.81432 2.99919 1.81432 3.32559V8.99558C1.81432 9.32197 2.07855 9.5862 2.40495 9.5862H8.54744C8.87383 9.5862 9.13806 9.32197 9.13806 8.99558V5.21558C9.13806 5.01987 9.29672 4.86121 9.49244 4.86121C9.68815 4.86121 9.84681 5.01987 9.84681 5.21558V8.99558C9.84681 9.7134 9.26526 10.2949 8.54744 10.2949H2.40495C1.68712 10.2949 1.10558 9.7134 1.10558 8.99558V3.32559Z" fill="black"/>
<path fill-rule="evenodd" clip-rule="evenodd" d="M6.36012 5.20661C6.31333 5.12204 6.19065 5.12648 6.14985 5.21326L5.6173 6.34499C5.56735 6.45112 5.46813 6.52567 5.3523 6.54409C5.23646 6.5625 5.11901 6.52241 5.03861 6.437L4.53068 5.89741C4.4779 5.84133 4.38607 5.84997 4.34472 5.91541C4.3447 5.91543 4.34473 5.91539 4.34472 5.91541L3.63415 7.04269C3.58453 7.12136 3.6407 7.22368 3.73409 7.22368H7.27406C7.36397 7.22368 7.42108 7.12706 7.3778 7.04827L6.36012 5.20661ZM5.50851 4.91159C5.79567 4.30105 6.65382 4.2734 6.98029 4.86352L7.99814 6.70547C8.3024 7.25695 7.90321 7.93243 7.27406 7.93243H3.73409C3.08285 7.93243 2.68736 7.21544 3.03457 6.66475C3.03459 6.66473 3.03456 6.66477 3.03457 6.66475L3.74521 5.53736C4.03368 5.08028 4.67618 5.01791 5.04675 5.41162C5.04675 5.41162 5.04674 5.41161 5.04675 5.41162L5.19773 5.57201L5.50851 4.91159C5.50852 4.91155 5.50849 4.91162 5.50851 4.91159Z" fill="black"/>
</svg>
