<svg width="10" height="11" viewBox="0 0 10 11" fill="none" xmlns="http://www.w3.org/2000/svg">
<g clip-path="url(#clip0_90_555)">
<rect y="0.428589" width="10" height="10" rx="5" fill="white"/>
<path fill-rule="evenodd" clip-rule="evenodd" d="M4.75 10.9286C7.92564 10.9286 10.5 8.35423 10.5 5.17859C10.5 2.00295 7.92564 -0.571411 4.75 -0.571411C1.57436 -0.571411 -1 2.00295 -1 5.17859C-1 8.35423 1.57436 10.9286 4.75 10.9286ZM5.44859 2.8413L2.5242 6.58435L2.49956 7.83411L3.70622 7.50784L6.63062 3.76479L6.2366 3.45696L3.40526 7.08093L2.96129 7.2431L3.01125 6.7731L5.84261 3.14913L5.44859 2.8413ZM6.61083 2.13067C6.41008 1.97383 5.909 2.21684 5.909 2.21684L5.60117 2.61085L6.78317 3.53434L7.09101 3.14034C7.09101 3.14034 7.20661 2.59614 7.00484 2.4385L6.61083 2.13067Z" fill="#5271FF"/>
</g>
<defs>
<clipPath id="clip0_90_555">
<rect y="0.428589" width="10" height="10" rx="5" fill="white"/>
</clipPath>
</defs>
</svg>
