<svg width="16" height="17" viewBox="0 0 16 17" fill="none" xmlns="http://www.w3.org/2000/svg">
<path d="M12.6667 14.5V3.83333C12.6667 3.09695 12.0697 2.5 11.3333 2.5H4.66667C3.93029 2.5 3.33333 3.09695 3.33333 3.83333V14.5M12.6667 14.5L14 14.5M12.6667 14.5H9.33333M3.33333 14.5L2 14.5M3.33333 14.5H6.66667M6 5.16665H6.66667M6 7.83332H6.66667M9.33333 5.16665H10M9.33333 7.83332H10M6.66667 14.5V11.1667C6.66667 10.7985 6.96514 10.5 7.33333 10.5H8.66667C9.03486 10.5 9.33333 10.7985 9.33333 11.1667V14.5M6.66667 14.5H9.33333" stroke="#101010" stroke-linecap="round" stroke-linejoin="round"/>
</svg>
