<svg width="16" height="16" viewBox="0 0 16 16" fill="none" xmlns="http://www.w3.org/2000/svg">
<path d="M8.00002 3.33317L8.00002 3.33984M8.00002 7.99984L8.00002 8.0065M8.00002 12.6665L8.00002 12.6732M8.00002 3.99984C7.63183 3.99984 7.33335 3.70136 7.33335 3.33317C7.33335 2.96498 7.63183 2.6665 8.00002 2.6665C8.36821 2.6665 8.66669 2.96498 8.66669 3.33317C8.66669 3.70136 8.36821 3.99984 8.00002 3.99984ZM8.00002 8.6665C7.63183 8.6665 7.33335 8.36803 7.33335 7.99984C7.33335 7.63165 7.63183 7.33317 8.00002 7.33317C8.36821 7.33317 8.66669 7.63165 8.66669 7.99984C8.66669 8.36803 8.36821 8.6665 8.00002 8.6665ZM8.00002 13.3332C7.63183 13.3332 7.33335 13.0347 7.33335 12.6665C7.33335 12.2983 7.63183 11.9998 8.00002 11.9998C8.36821 11.9998 8.66669 12.2983 8.66669 12.6665C8.66669 13.0347 8.36821 13.3332 8.00002 13.3332Z" stroke="#5271FF" stroke-linecap="round" stroke-linejoin="round"/>
</svg>
